<svg xmlns="http://www.w3.org/2000/svg" width="26" height="26" viewBox="0 0 26 26">
  <g id="Polygon_1" data-name="Polygon 1" transform="translate(26) rotate(90)" fill="#4c8bf5">
    <path d="M 22.76392936706543 25.5000057220459 L 3.236069917678833 25.5000057220459 C 2.712399959564209 25.5000057220459 2.235399961471558 25.23405456542969 1.960090041160583 24.78859519958496 C 1.68478000164032 24.3431453704834 1.660230040550232 23.79756546020508 1.894420027732849 23.32918548583984 L 11.65834999084473 3.801315546035767 C 11.91796016693115 3.282105445861816 12.41950988769531 2.972135543823242 13 2.972135543823242 C 13.58049011230469 2.972135543823242 14.08203983306885 3.282105445861816 14.34164047241211 3.801315546035767 L 24.1055793762207 23.32918548583984 C 24.33976936340332 23.79756546020508 24.31521987915039 24.3431453704834 24.03990936279297 24.78859519958496 C 23.76460075378418 25.23405456542969 23.28759956359863 25.5000057220459 22.76392936706543 25.5000057220459 Z" stroke="none"/>
    <path d="M 13 3.472126007080078 C 12.61299991607666 3.472126007080078 12.278639793396 3.678775787353516 12.10556983947754 4.02491569519043 L 2.341640472412109 23.55278587341309 C 2.116600036621094 24.00286483764648 2.297279357910156 24.38312530517578 2.385410308837891 24.52572631835938 C 2.473539352416992 24.66832542419434 2.73284912109375 24.99999618530273 3.23607063293457 24.99999618530273 L 22.76392936706543 24.99999618530273 C 23.26715087890625 24.99999618530273 23.52646064758301 24.66832542419434 23.61458969116211 24.52572631835938 C 23.70272064208984 24.38312530517578 23.88339996337891 24.00286483764648 23.65835952758789 23.55278587341309 L 13.89441967010498 4.02491569519043 C 13.72134971618652 3.678775787353516 13.38698959350586 3.472126007080078 13 3.472126007080078 M 12.99999904632568 2.472129821777344 C 13.71016502380371 2.472129821777344 14.42033004760742 2.840656280517578 14.78884983062744 3.577705383300781 L 24.55278968811035 23.10557556152344 C 25.21768951416016 24.43537521362305 24.25069999694824 25.99999618530273 22.76392936706543 25.99999618530273 L 3.23607063293457 25.99999618530273 C 1.749300003051758 25.99999618530273 0.7823104858398438 24.43537521362305 1.447210311889648 23.10557556152344 L 11.21113967895508 3.577705383300781 C 11.579665184021 2.840656280517578 12.28983211517334 2.472129821777344 12.99999904632568 2.472129821777344 Z" stroke="none" fill="#4c8bf5"/>
  </g>
</svg>
